# xmcd
#
# Track frame offsets: 
#        150
#        12305
#        31155
#        44412
#        58480
#        69177
#        84080
#        98087
#        109862
#        121697
#        134230
#        146440
#        159047
#        172867
#        188835
#        204460
#        216602
#        230600
#        248410
#        263917
#        278405
#        290500
#        301762
#        315835
#        336725
#
# Disc length: 4664 seconds
#
# Revision: 4
# Processed by: cddbd v1.5.2PL0 Copyright (c) Steve Scherf et al.
# Submitted via: ExactAudioCopy v1.0b3
#
DISCID=5c123619
DTITLE=Parton, Dolly - A Life In Music - The Ultimate Collection
DYEAR=1997
DGENRE=Country
TTITLE0=Jolene
TTITLE1=Parton, Dolly with Kenny Rogers - Islands In The Stream
TTITLE2=Here You Come Again
TTITLE3=I Will Always Love You [1982]
TTITLE4=Love Is Like A Butterfly
TTITLE5=Parton, Dolly with Willie Nelson - Everything's Beautiful (In 
TTITLE5=Its Own Way)
TTITLE6=Just Because I'm A Woman
TTITLE7=Why'd You Come in Here Lookin' Like That
TTITLE8=Parton, Dolly with Porter Wagoner - The Last Thing On My Mind
TTITLE9=In The Ghetto
TTITLE10=The Bargain Store
TTITLE11=9 To 5
TTITLE12=Joshua
TTITLE13=Heartbreaker
TTITLE14=Parton, Dolly with Ricky Van Shelton - Rockin' Years
TTITLE15=To Daddy [original]
TTITLE16=Coat Of Many Colors
TTITLE17=Yellow Roses
TTITLE18=Applejack
TTITLE19=Eagle When She Flies
TTITLE20=Parton, Dolly with Tammy Wynette and Loretta Lynn - Put It Of
TTITLE20=f Until Tomorrow
TTITLE21=Dumb Blonde
TTITLE22=My Tennessee Mountain Home
TTITLE23=Parton, Dolly with Alison Krauss - Just When I Needed You Mos
TTITLE23=t
TTITLE24=I Will Always Love You [original]
EXTD=
EXTT0=
EXTT1=
EXTT2=
EXTT3=
EXTT4=
EXTT5=
EXTT6=
EXTT7=
EXTT8=
EXTT9=
EXTT10=
EXTT11=
EXTT12=
EXTT13=
EXTT14=
EXTT15=
EXTT16=
EXTT17=
EXTT18=
EXTT19=
EXTT20=
EXTT21=
EXTT22=
EXTT23=
EXTT24=
PLAYORDER=
